<svg width="123" height="61" viewBox="0 0 123 61" fill="none" xmlns="http://www.w3.org/2000/svg">
<path fill-rule="evenodd" clip-rule="evenodd" d="M75.8283 8.98255e-06C100.998 8.98255e-06 122.984 8.98255e-06 122.979 25.398L122.984 25.4009C123.651 40.0901 102.848 52.1218 77.0174 52.1218H46.1437C40.7726 52.1218 35.5757 51.647 30.7069 50.6047L19.9171 61L15.6186 45.5847C8.58969 42.0847 3.61533 37.458 1.35804 32.3211C-0.899288 27.1841 -0.332424 21.7805 2.98316 16.8301C6.29871 11.8796 12.2056 7.6172 19.9171 4.6106C27.6286 1.60377 36.7787 -0.00438555 46.1488 8.98255e-06H75.8283ZM46.482 42.6465H77.1762H77.1814C95.2986 42.6465 112.026 32.6946 108.5 22.0784C105.984 14.6904 90.0966 9.47828 76.8431 9.47828H51.5C47.1378 9.46851 37.4703 10.0083 33.524 11.0586C29.5778 12.1089 26.0959 13.6428 23.3318 15.5493C20.5677 17.4556 18.5911 19.686 17.5458 22.0784C16.5005 24.4707 16.4129 26.9646 17.2894 29.3787C19.8058 36.7695 33.2233 42.6465 46.482 42.6465ZM40 31C42.7614 31 45 28.7615 45 26C45 23.2385 42.7614 21 40 21C37.2386 21 35 23.2385 35 26C35 28.7615 37.2386 31 40 31ZM66 26C66 28.7615 63.7614 31 61 31C58.2386 31 56 28.7615 56 26C56 23.2385 58.2386 21 61 21C63.7614 21 66 23.2385 66 26ZM82 31C84.7614 31 87 28.7615 87 26C87 23.2385 84.7614 21 82 21C79.2386 21 77 23.2385 77 26C77 28.7615 79.2386 31 82 31Z" fill="white"/>
</svg>
