<svg width="50" height="50" viewBox="0 0 50 50" fill="none" xmlns="http://www.w3.org/2000/svg">
<path d="M25 0C11.1927 0 0 11.1927 0 25C0 38.8073 11.1927 50 25 50C38.8073 50 50 38.8073 50 25C50 11.1927 38.8073 0 25 0ZM35.1693 20.4792C35.1797 20.6927 35.1823 20.9063 35.1823 21.1146C35.1823 27.625 30.2318 35.1276 21.1745 35.1276C18.4982 35.1321 15.8775 34.3634 13.6276 32.9141C14.0104 32.9609 14.4036 32.9792 14.8021 32.9792C17.1094 32.9792 19.2318 32.1953 20.9167 30.8724C19.8899 30.8522 18.895 30.5122 18.0706 29.8998C17.2462 29.2873 16.6335 28.433 16.3177 27.4557C17.0551 27.5959 17.8147 27.5666 18.5391 27.3698C17.4246 27.1444 16.4224 26.5406 15.7024 25.6606C14.9823 24.7806 14.5888 23.6787 14.5885 22.5417V22.4818C15.2526 22.849 16.013 23.0729 16.8203 23.099C15.7755 22.4035 15.0359 21.3351 14.7527 20.1123C14.4695 18.8896 14.6642 17.6048 15.2969 16.5208C16.5337 18.0417 18.0762 19.2858 19.8244 20.1727C21.5726 21.0596 23.4876 21.5694 25.4453 21.6693C25.1964 20.6128 25.3035 19.5037 25.75 18.5143C26.1965 17.525 26.9573 16.7109 27.9142 16.1986C28.8711 15.6863 29.9705 15.5045 31.0414 15.6814C32.1123 15.8584 33.0947 16.3842 33.8359 17.1771C34.9379 16.9591 35.9947 16.5548 36.9609 15.9818C36.5936 17.1227 35.8247 18.0916 34.7969 18.7083C35.773 18.5908 36.7262 18.3283 37.625 17.9297C36.9648 18.919 36.1332 19.7824 35.1693 20.4792Z" fill="white"/>
</svg>
